<svg width="48" height="24" viewBox="0 0 48 24" fill="none" xmlns="http://www.w3.org/2000/svg">
<path d="M6.98596 24C3.89399 24 1.97114 20.6418 3.5363 17.9752L11.1813 4.9504C12.6177 2.50318 15.243 1 18.0806 1H44C46.2091 1 48 2.79086 48 5V20C48 22.2091 46.2091 24 44 24H6.98596Z" fill="#1D5DEB"/>
<path d="M27.684 14.178L26.452 10.811C26.3913 10.6617 26.3283 10.4843 26.263 10.279C26.1977 10.0737 26.1323 9.852 26.067 9.614C26.0063 9.852 25.9433 10.076 25.878 10.286C25.8127 10.4913 25.7497 10.671 25.689 10.825L24.464 14.178H27.684ZM31.009 18H29.553C29.3897 18 29.2567 17.9603 29.154 17.881C29.0513 17.797 28.9743 17.6943 28.923 17.573L28.167 15.508H23.974L23.218 17.573C23.1807 17.6803 23.1083 17.7783 23.001 17.867C22.8937 17.9557 22.7607 18 22.602 18H21.132L25.115 7.878H27.033L31.009 18ZM39.923 7.878L35.835 18H34.134L30.046 7.878H31.558C31.7214 7.878 31.8544 7.91767 31.957 7.997C32.0597 8.07633 32.1367 8.179 32.188 8.305L34.575 14.479C34.6544 14.6797 34.729 14.9013 34.799 15.144C34.8737 15.382 34.9437 15.6317 35.009 15.893C35.065 15.6317 35.1257 15.382 35.191 15.144C35.2564 14.9013 35.3287 14.6797 35.408 14.479L37.781 8.305C37.8184 8.19767 37.8907 8.09967 37.998 8.011C38.11 7.92233 38.2454 7.878 38.404 7.878H39.923ZM42.8608 18H40.9708V7.878H42.8608V18Z" fill="white"/>
</svg>
