<svg width="48" height="24" viewBox="0 0 48 24" fill="none" xmlns="http://www.w3.org/2000/svg">
<path d="M6.98596 24C3.89399 24 1.97114 20.6418 3.5363 17.9752L11.1813 4.9504C12.6177 2.50318 15.243 1 18.0806 1H44C46.2091 1 48 2.79086 48 5V20C48 22.2091 46.2091 24 44 24H6.98596Z" fill="#1D5DEB"/>
<path d="M25.3903 7.878V18H23.7313V11.462C23.7313 11.2007 23.7453 10.9183 23.7733 10.615L20.7143 16.362C20.5696 16.6373 20.3479 16.775 20.0493 16.775H19.7833C19.4846 16.775 19.2629 16.6373 19.1183 16.362L16.0243 10.594C16.0383 10.748 16.0499 10.8997 16.0593 11.049C16.0686 11.1983 16.0733 11.336 16.0733 11.462V18H14.4143V7.878H15.8353C15.9193 7.878 15.9916 7.88033 16.0523 7.885C16.1129 7.88967 16.1666 7.90133 16.2133 7.92C16.2646 7.93867 16.3089 7.969 16.3463 8.011C16.3883 8.053 16.4279 8.109 16.4653 8.179L19.4963 13.8C19.5756 13.9493 19.6479 14.1033 19.7133 14.262C19.7833 14.4207 19.8509 14.584 19.9163 14.752C19.9816 14.5793 20.0493 14.4137 20.1193 14.255C20.1893 14.0917 20.2639 13.9353 20.3433 13.786L23.3323 8.179C23.3696 8.109 23.4093 8.053 23.4513 8.011C23.4933 7.969 23.5376 7.93867 23.5843 7.92C23.6356 7.90133 23.6916 7.88967 23.7523 7.885C23.8129 7.88033 23.8853 7.878 23.9693 7.878H25.3903ZM29.1116 12.12H29.5526C29.73 12.12 29.877 12.0967 29.9936 12.05C30.1103 11.9987 30.2106 11.9193 30.2946 11.812L33.0876 8.277C33.2043 8.12767 33.3256 8.025 33.4516 7.969C33.5823 7.90833 33.7456 7.878 33.9416 7.878H35.5656L32.1566 12.085C31.956 12.3417 31.7483 12.5237 31.5336 12.631C31.6876 12.687 31.8253 12.7663 31.9466 12.869C32.0726 12.967 32.1916 13.0977 32.3036 13.261L35.8176 18H34.1586C33.9346 18 33.7666 17.9697 33.6546 17.909C33.5473 17.8437 33.4563 17.7503 33.3816 17.629L30.5186 13.891C30.43 13.765 30.3273 13.6763 30.2106 13.625C30.094 13.5737 29.926 13.548 29.7066 13.548H29.1116V18H27.2286V7.878H29.1116V12.12ZM45.0793 7.878L40.9913 18H39.2903L35.2023 7.878H36.7143C36.8776 7.878 37.0106 7.91767 37.1133 7.997C37.216 8.07633 37.293 8.179 37.3443 8.305L39.7313 14.479C39.8106 14.6797 39.8853 14.9013 39.9553 15.144C40.03 15.382 40.1 15.6317 40.1653 15.893C40.2213 15.6317 40.282 15.382 40.3473 15.144C40.4126 14.9013 40.485 14.6797 40.5643 14.479L42.9373 8.305C42.9746 8.19767 43.047 8.09967 43.1543 8.011C43.2663 7.92233 43.4016 7.878 43.5603 7.878H45.0793Z" fill="white"/>
</svg>
