<svg width="48" height="24" viewBox="0 0 48 24" fill="none" xmlns="http://www.w3.org/2000/svg">
<path d="M6.98596 24C3.89399 24 1.97114 20.6418 3.5363 17.9752L11.1813 4.9504C12.6177 2.50318 15.243 1 18.0806 1H44C46.2091 1 48 2.79086 48 5V20C48 22.2091 46.2091 24 44 24H6.98596Z" fill="#1D5DEB"/>
<path d="M26.6396 7.878V18H24.9806V11.462C24.9806 11.2007 24.9946 10.9183 25.0226 10.615L21.9636 16.362C21.8189 16.6373 21.5972 16.775 21.2986 16.775H21.0326C20.7339 16.775 20.5122 16.6373 20.3676 16.362L17.2736 10.594C17.2876 10.748 17.2992 10.8997 17.3086 11.049C17.3179 11.1983 17.3226 11.336 17.3226 11.462V18H15.6636V7.878H17.0846C17.1686 7.878 17.2409 7.88033 17.3016 7.885C17.3622 7.88967 17.4159 7.90133 17.4626 7.92C17.5139 7.93867 17.5582 7.969 17.5956 8.011C17.6376 8.053 17.6772 8.109 17.7146 8.179L20.7456 13.8C20.8249 13.9493 20.8972 14.1033 20.9626 14.262C21.0326 14.4207 21.1002 14.584 21.1656 14.752C21.2309 14.5793 21.2986 14.4137 21.3686 14.255C21.4386 14.0917 21.5132 13.9353 21.5926 13.786L24.5816 8.179C24.6189 8.109 24.6586 8.053 24.7006 8.011C24.7426 7.969 24.7869 7.93867 24.8336 7.92C24.8849 7.90133 24.9409 7.88967 25.0016 7.885C25.0622 7.88033 25.1346 7.878 25.2186 7.878H26.6396ZM31.9079 12.967C32.2533 12.967 32.5543 12.925 32.8109 12.841C33.0676 12.7523 33.2799 12.6287 33.4479 12.47C33.6206 12.3067 33.7489 12.1107 33.8329 11.882C33.9169 11.6487 33.9589 11.3897 33.9589 11.105C33.9589 10.8343 33.9169 10.5893 33.8329 10.37C33.7489 10.1507 33.6229 9.964 33.4549 9.81C33.2869 9.656 33.0746 9.53933 32.8179 9.46C32.5613 9.376 32.2579 9.334 31.9079 9.334H30.5009V12.967H31.9079ZM31.9079 7.878C32.5846 7.878 33.1703 7.95733 33.6649 8.116C34.1596 8.27467 34.5679 8.49633 34.8899 8.781C35.2119 9.06567 35.4499 9.40633 35.6039 9.803C35.7626 10.1997 35.8419 10.6337 35.8419 11.105C35.8419 11.595 35.7603 12.0453 35.5969 12.456C35.4336 12.862 35.1886 13.212 34.8619 13.506C34.5353 13.8 34.1246 14.0287 33.6299 14.192C33.1399 14.3553 32.5659 14.437 31.9079 14.437H30.5009V18H28.6179V7.878H31.9079ZM40.8629 14.185V10.874C40.8629 10.5613 40.8839 10.216 40.9259 9.838L37.7829 14.185H40.8629ZM43.6419 14.185V15.186C43.6419 15.2793 43.6116 15.361 43.5509 15.431C43.4902 15.4963 43.4039 15.529 43.2919 15.529H42.3679V18H40.8629V15.529H36.5929C36.4762 15.529 36.3736 15.494 36.2849 15.424C36.1962 15.3493 36.1402 15.2583 36.1169 15.151L35.9349 14.276L40.7299 7.871H42.3679V14.185H43.6419Z" fill="white"/>
</svg>
